# Blender 4.0.2
# www.blender.org
mtllib ship3_2.mtl
o m2
v -0.408579 -0.215148 0.500000
v -0.500000 0.114527 0.500000
v -0.360565 -0.215148 -0.500000
v -0.433614 0.154485 -0.500000
v 0.408579 -0.215148 0.500000
v 0.500000 0.114527 0.500000
v 0.360565 -0.215148 -0.500000
v 0.433614 0.154485 -0.500000
v -0.444882 -0.135980 0.500000
v -0.396604 -0.136454 -0.500000
v 0.396604 -0.136454 -0.500000
v 0.444882 -0.135980 0.500000
v -0.469261 -0.055309 0.500000
v -0.414093 -0.035936 -0.500000
v 0.414093 -0.035936 -0.500000
v 0.469261 -0.055309 0.500000
v -0.480391 0.023601 0.500000
v -0.422573 0.052539 -0.500000
v 0.422573 0.052539 -0.500000
v 0.480391 0.023601 0.500000
v -0.200275 0.165062 0.381269
v -0.119644 0.289171 0.353819
v -0.200275 0.165062 -0.257115
v -0.119644 0.289171 -0.225020
v 0.200275 0.165062 0.381269
v 0.119644 0.289171 0.353819
v 0.200275 0.165062 -0.257115
v 0.119644 0.289171 -0.225020
vn -0.9854 -0.1566 -0.0666
vn 0.9854 -0.1566 -0.0666
vn -0.0000 -1.0000 -0.0000
vn -0.0000 0.9992 0.0399
vn 0.9082 -0.4162 -0.0436
vn -0.9082 -0.4162 -0.0436
vn 0.9730 -0.2248 -0.0525
vn -0.9730 -0.2248 -0.0525
vn 0.9915 -0.1162 -0.0588
vn -0.9915 -0.1162 -0.0588
vn -0.8386 0.5448 -0.0000
vn -0.0000 0.2504 -0.9682
vn 0.8386 0.5448 -0.0000
vn -0.0000 0.2160 0.9764
vn -0.0000 1.0000 -0.0000
vt 0.556049 0.000000
vt 0.625000 0.000000
vt 0.625000 0.250000
vt 0.556049 0.250000
vt 0.556049 0.500000
vt 0.625000 0.500000
vt 0.625000 0.750000
vt 0.556049 0.750000
vt 0.125000 0.500000
vt 0.375000 0.500000
vt 0.375000 0.750000
vt 0.125000 0.750000
vt 0.875000 0.500000
vt 0.875000 0.750000
vt 0.435035 0.500000
vt 0.435035 0.750000
vt 0.375000 0.000000
vt 0.435035 0.000000
vt 0.435035 0.250000
vt 0.375000 0.250000
vt 0.496210 0.500000
vt 0.496210 0.750000
vt 0.496210 0.000000
vt 0.496210 0.250000
vt 0.625000 1.000000
vt 0.375000 1.000000
s 0
f 17/1/1 2/2/1 4/3/1 18/4/1
f 19/5/2 8/6/2 6/7/2 20/8/2
f 3/9/3 7/10/3 5/11/3 1/12/3
f 8/6/4 4/13/4 2/14/4 6/7/4
f 7/10/5 11/15/5 12/16/5 5/11/5
f 1/17/6 9/18/6 10/19/6 3/20/6
f 11/15/7 15/21/7 16/22/7 12/16/7
f 9/18/8 13/23/8 14/24/8 10/19/8
f 15/21/9 19/5/9 20/8/9 16/22/9
f 13/23/10 17/1/10 18/4/10 14/24/10
f 21/17/11 22/2/11 24/3/11 23/20/11
f 23/20/12 24/3/12 28/6/12 27/10/12
f 27/10/13 28/6/13 26/7/13 25/11/13
f 25/11/14 26/7/14 22/25/14 21/26/14
f 23/9/3 27/10/3 25/11/3 21/12/3
f 28/6/15 24/13/15 22/14/15 26/7/15
